Format                                   : MPEG-4
Format profile                           : Base Media
Codec ID                                 : isom
File size                                : 715 MiB
Duration                                 : 23mn 15s
Overall bit rate mode                    : Variable
Overall bit rate                         : 4 297 Kbps
Movie name                               : Inspector Gadget Saves Christmas
Album                                    : DIC's Animated Christmas Special
Album/Performer                          : DIC's Animated Christmas Special
Part/Position                            : 1
Part/Total                               : 1
Track name/Position                      : 1
Track name/Total                         : 0
Performer                                : DIC's Animated Christmas Special
Genre                                    : Kids
Recorded date                            : UTC 2010-12-13 08:00:00
Tagged date                              : UTC 2012-11-30 02:16:38
Video
ID                                       : 1
Format                                   : AVC
Format/Info                              : Advanced Video Codec
Format profile                           : Baseline@L3.0
Format settings, CABAC                   : No
Format settings, ReFrames                : 3 frames
Codec ID                                 : avc1
Codec ID/Info                            : Advanced Video Coding
Duration                                 : 23mn 13s
Bit rate                                 : 4 169 Kbps
Width                                    : 1 280 pixels
Height                                   : 720 pixels
Display aspect ratio                     : 16:9
Frame rate mode                          : Constant
Frame rate                               : 23.976 fps
Color space                              : YUV
Chroma subsampling                       : 4:2:0
Bit depth                                : 8 bits
Scan type                                : Progressive
Bits/(Pixel*Frame)                       : 0.189
Stream size                              : 693 MiB (97%)
Writing library                          : x264 core 102
ID                                       : 2
Format                                   : AAC
Format/Info                              : Advanced Audio Codec
Format profile                           : LC
Codec ID                                 : 40
Duration                                 : 23mn 15s
Bit rate mode                            : Variable
Bit rate                                 : 128 Kbps
Maximum bit rate                         : 236 Kbps
Channel(s)                               : 2 channels
Channel positions                        : Front: L R
Sampling rate                            : 44.1 KHz
Compression mode                         : Lossy
Stream size                              : 21.3 MiB (3%)

Storyline

We're in for some merry mishaps when Inspector Gadget Saves Christmas. That bionic bonehead is off to the North Pole to stop Dr. Claw from taking over Santa's elves and workshop. Accompanied as usual by Penny and Brain who foil Claw's operations once again. 

 
http://s19.postimage.org/dd99jfntf/image.jpg
 
http://s19.postimage.org/6o2q3f2hf/image.jpg
 
http://s19.postimage.org/ayhdz07kj/image.jpg


RUNTIME: 23 MINUTES 15 SECONDS

Sample included
